<svg width="16" height="16" viewBox="0 0 16 16" fill="none" xmlns="http://www.w3.org/2000/svg">
<g id="Vector">
<path id="Vector-7" d="M3.75 4.5C3.75 4.91421 4.08579 5.25 4.5 5.25C4.91421 5.25 5.25 4.91421 5.25 4.5H3.75ZM4.5 4.267H5.25001L5.24999 4.26283L4.5 4.267ZM5.43887 1.96432L5.97213 2.49171L5.43887 1.96432ZM7.731 1V0.249989L7.72686 0.250011L7.731 1ZM11.769 1L11.7731 0.25H11.769V1ZM14.0611 1.96432L13.5279 2.49171V2.49171L14.0611 1.96432ZM15 4.267L14.25 4.26283V4.267H15ZM15 8.233H14.25L14.25 8.23717L15 8.233ZM14.0611 10.5357L13.5279 10.0083L14.0611 10.5357ZM11.769 11.5V12.25L11.7731 12.25L11.769 11.5ZM11.5 10.75C11.0858 10.75 10.75 11.0858 10.75 11.5C10.75 11.9142 11.0858 12.25 11.5 12.25V10.75ZM4.5 5.25C4.91421 5.25 5.25 4.91421 5.25 4.5C5.25 4.08579 4.91421 3.75 4.5 3.75V5.25ZM4.231 4.5V3.74999L4.22686 3.75001L4.231 4.5ZM1.93887 5.46432L2.47213 5.99171L1.93887 5.46432ZM1 7.767H1.75001L1.74999 7.76283L1 7.767ZM1 11.734L1.75 11.7379V11.734H1ZM4.231 15L4.22686 15.75H4.231V15ZM8.269 15V15.75L8.27314 15.75L8.269 15ZM10.5611 14.0357L10.0279 13.5083L10.5611 14.0357ZM11.5 11.733H10.75L10.75 11.7372L11.5 11.733ZM12.25 11.5C12.25 11.0858 11.9142 10.75 11.5 10.75C11.0858 10.75 10.75 11.0858 10.75 11.5H12.25ZM4.5 3.75C4.08579 3.75 3.75 4.08579 3.75 4.5C3.75 4.91421 4.08579 5.25 4.5 5.25V3.75ZM8.269 4.5L8.27314 3.75H8.269V4.5ZM10.5611 5.46432L11.0944 4.93694V4.93694L10.5611 5.46432ZM11.5 7.767L10.75 7.76283V7.767H11.5ZM10.75 11.5C10.75 11.9142 11.0858 12.25 11.5 12.25C11.9142 12.25 12.25 11.9142 12.25 11.5H10.75ZM5.25 4.5V4.267H3.75V4.5H5.25ZM5.24999 4.26283C5.24631 3.60005 5.50607 2.96296 5.97213 2.49171L4.90561 1.43694C4.1598 2.19106 3.74412 3.21056 3.75001 4.27117L5.24999 4.26283ZM5.97213 2.49171C6.43819 2.02046 7.07237 1.75365 7.73514 1.74999L7.72686 0.250011C6.66625 0.255871 5.65141 0.682823 4.90561 1.43694L5.97213 2.49171ZM7.731 1.75H11.769V0.25H7.731V1.75ZM11.7649 1.74999C12.4276 1.75365 13.0618 2.02046 13.5279 2.49171L14.5944 1.43694C13.8486 0.682823 12.8337 0.255871 11.7731 0.250011L11.7649 1.74999ZM13.5279 2.49171C13.9939 2.96296 14.2537 3.60005 14.25 4.26283L15.75 4.27117C15.7559 3.21056 15.3402 2.19106 14.5944 1.43694L13.5279 2.49171ZM14.25 4.267V8.233H15.75V4.267H14.25ZM14.25 8.23717C14.2537 8.89995 13.9939 9.53704 13.5279 10.0083L14.5944 11.0631C15.3402 10.3089 15.7559 9.28944 15.75 8.22883L14.25 8.23717ZM13.5279 10.0083C13.0618 10.4795 12.4276 10.7463 11.7649 10.75L11.7731 12.25C12.8337 12.2441 13.8486 11.8172 14.5944 11.0631L13.5279 10.0083ZM11.769 10.75H11.5V12.25H11.769V10.75ZM4.5 3.75H4.231V5.25H4.5V3.75ZM4.22686 3.75001C3.16625 3.75587 2.15141 4.18282 1.40561 4.93694L2.47213 5.99171C2.93819 5.52046 3.57237 5.25365 4.23514 5.24999L4.22686 3.75001ZM1.40561 4.93694C0.659802 5.69106 0.24412 6.71056 0.250013 7.77117L1.74999 7.76283C1.74631 7.10005 2.00607 6.46296 2.47213 5.99171L1.40561 4.93694ZM0.250001 7.767V11.734H1.75V7.767H0.250001ZM0.250011 11.7301C0.238424 13.9382 2.01874 15.7378 4.22686 15.75L4.23515 14.25C2.85528 14.2424 1.74275 13.1178 1.74999 11.7379L0.250011 11.7301ZM4.231 15.75H8.269V14.25H4.231V15.75ZM8.27314 15.75C9.33375 15.7441 10.3486 15.3172 11.0944 14.5631L10.0279 13.5083C9.56181 13.9795 8.92764 14.2463 8.26486 14.25L8.27314 15.75ZM11.0944 14.5631C11.8402 13.8089 12.2559 12.7894 12.25 11.7288L10.75 11.7372C10.7537 12.3999 10.4939 13.037 10.0279 13.5083L11.0944 14.5631ZM12.25 11.733V11.5H10.75V11.733H12.25ZM4.5 5.25H8.269V3.75H4.5V5.25ZM8.26486 5.24999C8.92764 5.25365 9.56181 5.52046 10.0279 5.99171L11.0944 4.93694C10.3486 4.18282 9.33375 3.75587 8.27314 3.75001L8.26486 5.24999ZM10.0279 5.99171C10.4939 6.46296 10.7537 7.10005 10.75 7.76283L12.25 7.77117C12.2559 6.71056 11.8402 5.69106 11.0944 4.93694L10.0279 5.99171ZM10.75 7.767V11.5H12.25V7.767H10.75Z" fill="#999A9A"/>
</g>
</svg>
