<svg width="16" height="16" viewBox="0 0 16 16" fill="none" xmlns="http://www.w3.org/2000/svg">
<g id="Xnix/Line/Cross">
<g id="Vector">
<path id="Vector-47" d="M2.80365 12.1364C2.51076 12.4293 2.51076 12.9041 2.80365 13.197C3.09655 13.4899 3.57142 13.4899 3.86431 13.197L2.80365 12.1364ZM8.53098 8.53037C8.82387 8.23748 8.82387 7.7626 8.53098 7.46971C8.23809 7.17682 7.76321 7.17682 7.47032 7.46971L8.53098 8.53037ZM7.47032 7.46971C7.17743 7.7626 7.17743 8.23748 7.47032 8.53037C7.76321 8.82326 8.23809 8.82326 8.53098 8.53037L7.47032 7.46971ZM13.1976 3.8637C13.4905 3.57081 13.4905 3.09594 13.1976 2.80304C12.9048 2.51015 12.4299 2.51015 12.137 2.80304L13.1976 3.8637ZM8.53098 7.46971C8.23809 7.17682 7.76321 7.17682 7.47032 7.46971C7.17743 7.7626 7.17743 8.23748 7.47032 8.53037L8.53098 7.46971ZM12.137 13.197C12.4299 13.4899 12.9048 13.4899 13.1976 13.197C13.4905 12.9041 13.4905 12.4293 13.1976 12.1364L12.137 13.197ZM7.47032 8.53037C7.76321 8.82326 8.23809 8.82326 8.53098 8.53037C8.82387 8.23748 8.82387 7.7626 8.53098 7.46971L7.47032 8.53037ZM3.86431 2.80304C3.57142 2.51015 3.09655 2.51015 2.80365 2.80304C2.51076 3.09594 2.51076 3.57081 2.80365 3.8637L3.86431 2.80304ZM3.86431 13.197L8.53098 8.53037L7.47032 7.46971L2.80365 12.1364L3.86431 13.197ZM8.53098 8.53037L13.1976 3.8637L12.137 2.80304L7.47032 7.46971L8.53098 8.53037ZM7.47032 8.53037L12.137 13.197L13.1976 12.1364L8.53098 7.46971L7.47032 8.53037ZM8.53098 7.46971L3.86431 2.80304L2.80365 3.8637L7.47032 8.53037L8.53098 7.46971Z" fill="#0F1011"/>
</g>
</g>
</svg>
