<svg width="150" height="42" viewBox="0 0 150 42" fill="none" xmlns="http://www.w3.org/2000/svg">
<g id="Alfa_Lising_red 1" clip-path="url(#clip0_457_5754)">
<g id="g10">
<g id="g12">
<g id="Clip path group">
<mask id="mask0_457_5754" style="mask-type:luminance" maskUnits="userSpaceOnUse" x="0" y="0" width="150" height="42">
<g id="clipPath18">
<path id="path16" d="M0 0H149.431V42H0V0Z" fill="white"/>
</g>
</mask>
<g mask="url(#mask0_457_5754)">
<g id="g14">
<g id="g20">
<path id="path22" d="M77.3191 18.947C77.0323 21.8597 76.4949 22.7021 74.9234 22.7021H74.5898V25.6112H75.2193C78.7783 25.6112 79.6965 23.2649 80.0796 19.2116L80.625 12.9821H85.3768V25.463H88.3281V10.3268H78.0853L77.3191 18.947Z" fill="#FF2D1E"/>
</g>
<g id="g24">
<path id="path26" d="M135.614 14.6424V25.4631H138.418V17.0649H143.033V14.6424H135.614Z" fill="#FF2D1E"/>
</g>
<g id="g28">
<path id="path30" d="M97.0634 14.6424L93.2044 21.2542V14.6424H90.4434V25.4631H93.1773L97.0363 18.8099V25.4631H99.8185V14.6424H97.0634Z" fill="#FF2D1E"/>
</g>
<g id="g32">
<path id="path34" d="M118.77 14.6424L114.911 21.2542V14.6424H112.15V25.4631H114.884L118.743 18.8099V25.4631H121.526V14.6424H118.77Z" fill="#FF2D1E"/>
</g>
<g id="g36">
<path id="path38" d="M24.1614 20.4965C24.0951 22.5173 23.8342 22.9221 22.6982 22.9221V25.463H23.1218C25.955 25.463 26.6365 23.9998 26.7411 20.7467L26.8563 17.1468H29.5129V25.463H32.2851V14.625H24.3539L24.1614 20.4965Z" fill="#FF2D1E"/>
</g>
<g id="g40">
<path id="path42" d="M38.9631 23.0761H37.1727V20.3232H38.9631C39.9255 20.3232 40.5031 20.7467 40.5031 21.6515C40.5031 22.6334 39.9448 23.0761 38.9631 23.0761ZM39.1747 17.917H37.1727V14.625H34.4009V25.4631H39.2133C42.2358 25.4631 43.3137 23.4995 43.3137 21.6515C43.3137 19.2645 41.8122 17.917 39.1747 17.917Z" fill="#FF2D1E"/>
</g>
<g id="g44">
<path id="path46" d="M52.3424 23.0954V16.9737C53.8825 17.1855 54.845 18.3405 54.845 20.0344C54.845 21.7286 53.8825 22.8836 52.3424 23.0954ZM49.5704 23.0954C48.0305 22.8836 47.0678 21.7286 47.0678 20.0344C47.0678 18.3405 48.0305 17.1855 49.5704 16.9737V23.0954ZM52.3424 14.375V10.3515H49.5704V14.375C46.3941 14.6444 44.2573 16.8968 44.2573 20.0344C44.2573 23.1915 46.3941 25.4439 49.5704 25.7133V29.7946H52.3424V25.7133C55.5188 25.4631 57.6557 23.1915 57.6557 20.0344C57.6557 16.8775 55.5188 14.6252 52.3424 14.375Z" fill="#FF2D1E"/>
</g>
<g id="g48">
<path id="path50" d="M65.2788 21.4205C65.2788 22.6718 64.3935 23.3841 63.2383 23.3841C62.2373 23.3841 61.448 23.0182 61.448 21.9402C61.448 20.8815 62.3143 20.7082 63.065 20.7082H65.2788V21.4205ZM68.051 22.1327V18.4944C68.051 15.8379 66.3567 14.163 63.5076 14.163C60.5624 14.163 59.0031 15.9341 58.8685 17.7821H61.679C61.7753 17.3778 62.1987 16.6848 63.5076 16.6848C64.5858 16.6848 65.2788 17.1853 65.2788 18.4944H62.526C60.0619 18.4944 58.5986 19.7842 58.5986 21.9402C58.5986 24.1925 60.1993 25.7326 62.5068 25.7326C64.1989 25.7326 65.1382 24.9331 65.5483 24.3273C65.9141 25.0588 66.7226 25.4631 67.7814 25.4631H68.7439V22.9605C68.2436 22.9605 68.051 22.7295 68.051 22.1327Z" fill="#FF2D1E"/>
</g>
<g id="g52">
<path id="path54" d="M12.9961 19.7457L15.075 13.5663H15.1521L17.1157 19.7457H12.9961ZM17.8079 12.4256C17.3854 11.1653 16.8983 10.1697 15.2291 10.1697C13.56 10.1697 13.0417 11.1612 12.5968 12.4256L8.01025 25.4631H11.0518L12.1106 22.3637H17.9626L18.9445 25.4631H22.1786L17.8079 12.4256Z" fill="#FF2D1E"/>
</g>
<path id="path56" d="M22.504 32.7305H7.68457V29.6512H22.504V32.7305Z" fill="#FF2D1E"/>
<g id="g58">
<path id="path60" d="M130.693 18.7197H126.447V14.6331H123.642V25.4631H126.447V21.1436H130.693V25.4631H133.498V14.6331H130.693V18.7197Z" fill="#FF2D1E"/>
</g>
<g id="g62">
<path id="path64" d="M108.955 19.8471C109.681 19.5516 110.453 18.658 110.453 17.4333C110.453 15.3833 108.786 14.1594 105.994 14.1594C102.901 14.1594 101.468 15.9779 101.191 17.83H103.942C104.196 17.041 104.865 16.4127 105.994 16.4127C107.075 16.4127 107.67 16.8352 107.67 17.6025C107.67 18.6008 106.779 18.9069 106.192 18.9069H104.603V20.9911H106.276C107.276 20.9911 107.861 21.4059 107.861 22.1392C107.861 23.0394 107.188 23.477 105.803 23.477C104.215 23.477 103.818 22.361 103.67 21.8692H100.984C101.175 23.8298 102.546 25.7302 105.803 25.7302C108.841 25.7302 110.728 24.3785 110.728 22.2026C110.728 21.0921 110.069 20.1959 108.955 19.8471Z" fill="#FF2D1E"/>
</g>
</g>
</g>
</g>
</g>
</g>
</g>
<defs>
<clipPath id="clip0_457_5754">
<rect width="149.431" height="42" fill="white"/>
</clipPath>
</defs>
</svg>
