<svg width="22" height="22" viewBox="0 0 22 22" fill="none" xmlns="http://www.w3.org/2000/svg">
<g id="Vector">
<path id="Vector-33" fill-rule="evenodd" clip-rule="evenodd" d="M11.0006 4.77741C11.0006 6.49539 9.60794 7.88808 7.88996 7.88808C6.17199 7.88808 4.7793 6.49539 4.7793 4.77741C4.7793 3.05944 6.17199 1.66675 7.88996 1.66675C9.60794 1.66675 11.0006 3.05944 11.0006 4.77741Z" stroke="#0F1011" stroke-width="1.5" stroke-linecap="round" stroke-linejoin="round"/>
<path id="Vector-34" fill-rule="evenodd" clip-rule="evenodd" d="M14.111 15.9775C14.111 18.3775 11.3257 20.3335 7.88833 20.3335C4.45099 20.3335 1.66699 18.3828 1.66699 15.9775C1.66699 13.5721 4.45233 11.6228 7.88966 11.6228C11.327 11.6228 14.111 13.5721 14.111 15.9775Z" stroke="#0F1011" stroke-width="1.5" stroke-linecap="round" stroke-linejoin="round"/>
<path id="Vector-35" fill-rule="evenodd" clip-rule="evenodd" d="M17.5859 7.68136C17.5859 8.7123 16.7501 9.54803 15.7192 9.54803C14.6883 9.54803 13.8525 8.7123 13.8525 7.68136C13.8525 6.65043 14.6883 5.8147 15.7192 5.8147C16.2143 5.8147 16.6891 6.01136 17.0391 6.36143C17.3892 6.7115 17.5859 7.18629 17.5859 7.68136Z" stroke="#0F1011" stroke-width="1.5" stroke-linecap="round" stroke-linejoin="round"/>
<path id="Vector-36" d="M16.6006 19.0895C18.4856 19.2442 20.1468 17.8595 20.3339 15.9775C20.1461 14.0959 18.4851 12.712 16.6006 12.8668" stroke="#0F1011" stroke-width="1.5" stroke-linecap="round" stroke-linejoin="round"/>
</g>
</svg>
