<svg width="26" height="22" viewBox="0 0 26 22" fill="none" xmlns="http://www.w3.org/2000/svg">
<g id="Vector">
<path id="Vector-10" fill-rule="evenodd" clip-rule="evenodd" d="M4.20818 5.95196C5.23351 3.41596 6.46684 1.66663 9.25884 1.66663H16.7428C19.5322 1.66663 20.7668 3.41596 21.7935 5.95196L22.8188 8.66529C23.5828 8.67449 24.2847 9.08807 24.6628 9.75196C24.8853 10.1301 25.0019 10.5612 25.0002 11V14.4986C25.0101 15.3155 24.5977 16.0798 23.9095 16.52C23.5822 16.7238 23.2044 16.8319 22.8188 16.832H3.18151C2.79595 16.8319 2.41812 16.7238 2.09084 16.52C1.4026 16.0798 0.990252 15.3155 1.00018 14.4986V11C0.998736 10.5617 1.11525 10.1311 1.33751 9.75329C1.71569 9.08941 2.41752 8.67582 3.18151 8.66663L4.20818 5.95196Z" stroke="#0F1011" stroke-width="1.5" stroke-linecap="round" stroke-linejoin="round"/>
<path id="Vector-11" d="M6.11411 16.8333C6.11411 16.4191 5.77832 16.0833 5.36411 16.0833C4.9499 16.0833 4.61411 16.4191 4.61411 16.8333H6.11411ZM5.36411 18.584H4.61411C4.61411 18.592 4.61424 18.6 4.61449 18.608L5.36411 18.584ZM3.72678 20.3333L3.70065 21.0828C3.71787 21.0834 3.73511 21.0834 3.75233 21.0828L3.72678 20.3333ZM2.09078 18.5826L2.84037 18.6072C2.84064 18.599 2.84078 18.5908 2.84078 18.5826H2.09078ZM2.84078 16.5199C2.84078 16.1057 2.50499 15.7699 2.09078 15.7699C1.67656 15.7699 1.34078 16.1057 1.34078 16.5199H2.84078ZM3.18144 7.91528C2.76723 7.91528 2.43144 8.25107 2.43144 8.66528C2.43144 9.0795 2.76723 9.41528 3.18144 9.41528V7.91528ZM22.8188 9.41528C23.233 9.41528 23.5688 9.0795 23.5688 8.66528C23.5688 8.25107 23.233 7.91528 22.8188 7.91528V9.41528ZM21.3874 16.8319C21.3874 16.4177 21.0517 16.0819 20.6374 16.0819C20.2232 16.0819 19.8874 16.4177 19.8874 16.8319H21.3874ZM20.6374 18.5826L21.3859 18.6304C21.3869 18.6145 21.3874 18.5986 21.3874 18.5826H20.6374ZM21.4241 20.0897L21.8128 19.4483L21.4241 20.0897ZM23.1241 20.0897L22.7354 19.4483L23.1241 20.0897ZM23.9108 18.5826H23.1608C23.1608 18.5986 23.1613 18.6145 23.1623 18.6304L23.9108 18.5826ZM24.6608 16.5199C24.6608 16.1057 24.325 15.7699 23.9108 15.7699C23.4966 15.7699 23.1608 16.1057 23.1608 16.5199H24.6608ZM5.00011 12.2499C4.5859 12.2499 4.25011 12.5857 4.25011 12.9999C4.25011 13.4142 4.5859 13.7499 5.00011 13.7499V12.2499ZM6.33344 13.7499C6.74766 13.7499 7.08344 13.4142 7.08344 12.9999C7.08344 12.5857 6.74766 12.2499 6.33344 12.2499V13.7499ZM19.6668 12.2499C19.2526 12.2499 18.9168 12.5857 18.9168 12.9999C18.9168 13.4142 19.2526 13.7499 19.6668 13.7499V12.2499ZM21.0001 13.7499C21.4143 13.7499 21.7501 13.4142 21.7501 12.9999C21.7501 12.5857 21.4143 12.2499 21.0001 12.2499V13.7499ZM4.61411 16.8333V18.584H6.11411V16.8333H4.61411ZM4.61449 18.608C4.6312 19.1294 4.22262 19.5659 3.70122 19.5837L3.75233 21.0828C5.10048 21.0369 6.15693 19.9082 6.11372 18.5599L4.61449 18.608ZM3.7529 19.5837C3.2315 19.5656 2.82324 19.1287 2.84037 18.6072L1.34118 18.558C1.29688 19.9062 2.35249 21.0358 3.70065 21.0828L3.7529 19.5837ZM2.84078 18.5826V16.5199H1.34078V18.5826H2.84078ZM3.18144 9.41528H22.8188V7.91528H3.18144V9.41528ZM19.8874 16.8319V18.5826H21.3874V16.8319H19.8874ZM19.889 18.5348C19.8322 19.4233 20.274 20.2696 21.0354 20.7311L21.8128 19.4483C21.5293 19.2764 21.3648 18.9613 21.3859 18.6304L19.889 18.5348ZM21.0354 20.7311C21.7967 21.1925 22.7515 21.1925 23.5128 20.7311L22.7354 19.4483C22.4519 19.6201 22.0963 19.6201 21.8128 19.4483L21.0354 20.7311ZM23.5128 20.7311C24.2742 20.2696 24.716 19.4233 24.6593 18.5348L23.1623 18.6304C23.1834 18.9613 23.0189 19.2764 22.7354 19.4483L23.5128 20.7311ZM24.6608 18.5826V16.5199H23.1608V18.5826H24.6608ZM5.00011 13.7499H6.33344V12.2499H5.00011V13.7499ZM19.6668 13.7499H21.0001V12.2499H19.6668V13.7499Z" fill="#0F1011"/>
</g>
</svg>
